<svg xmlns="http://www.w3.org/2000/svg" width="854.22" height="87.55" viewBox="0 0 854.22 87.55">
    <title>Edge-D6</title>
    <g id="Layer_1" data-name="Layer 1">
        <path d="M65.93,67.06A91.2,91.2,0,0,0,40.34,52.63c-9.25-3.31-19.3-4.8-29.12-3.25A46,46,0,0,0,0,52.61V61q1.65-.67,3.36-1.2a47.34,47.34,0,0,1,26.23-.23A74,74,0,0,1,53.43,71.17,116.13,116.13,0,0,1,70.51,86.31h.4A14.83,14.83,0,0,0,81.43,82a111.46,111.46,0,0,0-15.5-14.9" style="fill: #ffcd11"/>
        <path d="M86,58.38A82,82,0,0,0,65.54,44.52a79.05,79.05,0,0,0-28.63-7.47,74.47,74.47,0,0,0-29.69,4,67.87,67.87,0,0,0-7.22,3V51A48.29,48.29,0,0,1,10.78,47c10.17-2.42,21-1.69,31.05,1A97,97,0,0,1,70.25,61.32,118.11,118.11,0,0,1,85.8,73.74a14.67,14.67,0,0,0,.2-2.3Z" style="fill: #ffcd11"/>
        <path d="M49.05,76.78a68.16,68.16,0,0,0-20.87-12.7A43.9,43.9,0,0,0,4,62.07c-1.34.28-2.66.65-4,1.06v8.28a14.91,14.91,0,0,0,14.9,14.9H58.62a101.27,101.27,0,0,0-9.57-9.53" style="fill: #ffcd11"/>
        <path d="M8.57,28.16a109.82,109.82,0,0,1,33-9.51A98,98,0,0,1,76.4,20.33a79.94,79.94,0,0,1,9.6,3V15.21A14.9,14.9,0,0,0,71.09.31H14.9A14.9,14.9,0,0,0,0,15.21V32.73q4.17-2.49,8.57-4.57" style="fill: #ffcd11"/>
        <path d="M74.5,27.17A91.76,91.76,0,0,0,42,23.35a106.5,106.5,0,0,0-32.52,7A97.55,97.55,0,0,0,0,34.65v7.46a71,71,0,0,1,6.34-3.2A78.16,78.16,0,0,1,37,32.34,84.85,84.85,0,0,1,68.33,38,89.78,89.78,0,0,1,86,47.16V31.91a72.56,72.56,0,0,0-11.5-4.74" style="fill: #ffcd11"/>
        <g>
            <path d="M190.06,86.66H172.78V9.73l-16,76.93H139.25L123,9.73V86.66H108.53V1.28h28l12.31,62,12.9-62h28.33Z"  fill="currentColor"/>
            <path d="M219,86.66H201.07V1.28H219Z" fill="currentColor"/>
            <path d="M291.57,86.66h-25L247.28,19.58V86.66H233.07V1.28h23.45L276.6,67.71V1.28h15Z"  fill="currentColor"/>
            <path d="M345.71,86.66H300.53V1.28h43.52V14.34H318.7V35.58H343V49H318.7v24.2h27Z"  fill="currentColor"/>
            <path d="M403.31,63.78q0,12.15-5.89,17.77t-21,5.62q-16.64,0-21.89-6.85T349.29,60h18.18a36.07,36.07,0,0,0,1.28,10.88c.85,2.56,3.16,3.84,6.91,3.84,4.1,0,6.74-.85,7.94-2.56s1.79-4.35,1.79-7.93q0-6.27-8.9-12T359,41.22q-9.21-7.17-9.21-16.39,0-12,7.42-18.43t20-6.4a30.63,30.63,0,0,1,17.66,5.06q7.42,5.05,7.43,17.72v4.74H384.24c0-5.84-.62-9.7-1.86-11.61s-3.39-2.85-6.46-2.85a7.59,7.59,0,0,0-5.38,2.17,8,8,0,0,0-2.3,6.13q0,7.29,12.48,14.12t17.53,11Q403.31,50.63,403.31,63.78Z"  fill="currentColor"/>
            <path d="M459.76,14.72H440.43V86.66H422.51V14.72H403.44V1.28h56.32Z"  fill="currentColor"/>
            <path d="M524.27,86.66H505.7L501,67.58H477.28l-4.95,19-15.64,0L479.47,1.28h22.78Zm-26.5-32.13-7.94-38.95L480.37,54.5Z"  fill="currentColor"/>
            <path d="M585.2,86.66H566.51q-.76-13.11-1.54-26.34-1.15-9.89-9-9.89c-1,0-2.64.11-4.86.32s-3.59.32-4.1.32V86.66H529.52V1.28L564,1.41q10.23,0,14.46,5.63t4.23,15q0,11.13-3.08,15.42T568,44Q581.62,46.34,582.89,60T585.2,86.66ZM564.72,25.6q0-6.92-2.12-9.22c-1.4-1.53-4-2.3-7.87-2.3h-7.68V38.27l6.91-.13q5.64,0,8.2-2T564.72,25.6Z"  fill="currentColor"/>
        </g>
        <g>
            <path d="M672.71,86.66H627.53V1.28h43.52V14.34H645.7V35.58H670V49H645.7v24.2h27Z"  fill="currentColor"/>
            <path d="M737,46.15q0,21-5,30.76t-21.51,9.75H681V1.28h32.51q13.58,0,18.5,11.09T737,46.15Zm-18.69-2.57q0-18.33-2.11-23.79t-9.67-5.45h-7.8V73.22h10.75q5.76,0,7.29-6T718.28,43.58Z"  fill="currentColor"/>
            <path d="M797.51,84q-7.29,1.78-12.67,2.69a74.43,74.43,0,0,1-12,.89q-17.92,0-24.45-7.1t-6.53-33.09q0-28.29,5.7-37.82T771.27,0Q788,0,792.78,6.78t4.73,20.48H780q0-7.8-1.8-11.13T771,12.8q-7,0-9,5.7t-2,26.3q0,19.59,2,24.64t9.72,5.06a43.21,43.21,0,0,0,5.38-.26A24.2,24.2,0,0,1,780,74V54.53h-9.22V41.22h26.75Z"  fill="currentColor"/>
            <path d="M854.22,86.66H809V1.28h43.52V14.34H827.21V35.58h24.32V49H827.21v24.2h27Z"  fill="currentColor"/>
        </g>
    </g>
    <g id="Layer_1_copy" data-name="Layer 1 copy">
        <path d="M65.93,67.06A91.2,91.2,0,0,0,40.34,52.63c-9.25-3.31-19.3-4.8-29.12-3.25A46,46,0,0,0,0,52.61V61q1.65-.67,3.36-1.2a47.34,47.34,0,0,1,26.23-.23A74,74,0,0,1,53.43,71.17,116.13,116.13,0,0,1,70.51,86.31h.4A14.83,14.83,0,0,0,81.43,82a111.46,111.46,0,0,0-15.5-14.9" style="fill: #ffcd11"/>
        <path d="M86,58.38A82,82,0,0,0,65.54,44.52a79.05,79.05,0,0,0-28.63-7.47,74.47,74.47,0,0,0-29.69,4,67.87,67.87,0,0,0-7.22,3V51A48.29,48.29,0,0,1,10.78,47c10.17-2.42,21-1.69,31.05,1A97,97,0,0,1,70.25,61.32,118.11,118.11,0,0,1,85.8,73.74a14.67,14.67,0,0,0,.2-2.3Z" style="fill: #ffcd11"/>
        <path d="M49.05,76.78a68.16,68.16,0,0,0-20.87-12.7A43.9,43.9,0,0,0,4,62.07c-1.34.28-2.66.65-4,1.06v8.28a14.91,14.91,0,0,0,14.9,14.9H58.62a101.27,101.27,0,0,0-9.57-9.53" style="fill: #ffcd11"/>
        <path d="M8.57,28.16a109.82,109.82,0,0,1,33-9.51A98,98,0,0,1,76.4,20.33a79.94,79.94,0,0,1,9.6,3V15.21A14.9,14.9,0,0,0,71.09.31H14.9A14.9,14.9,0,0,0,0,15.21V32.73q4.17-2.49,8.57-4.57" style="fill: #ffcd11"/>
        <path d="M74.5,27.17A91.76,91.76,0,0,0,42,23.35a106.5,106.5,0,0,0-32.52,7A97.55,97.55,0,0,0,0,34.65v7.46a71,71,0,0,1,6.34-3.2A78.16,78.16,0,0,1,37,32.34,84.85,84.85,0,0,1,68.33,38,89.78,89.78,0,0,1,86,47.16V31.91a72.56,72.56,0,0,0-11.5-4.74" style="fill: #ffcd11"/>
        <g>
            <path d="M592.25,3.18h-2.42v9h-2.24v-9h-2.38V1.5h7Z"  fill="currentColor"/>
            <path d="M603.16,12.17H601V2.55l-2,9.62h-2.19l-2-9.62v9.62H593V1.5h3.49L598,9.25l1.62-7.75h3.54Z"  fill="currentColor"/>
        </g>
    </g>
</svg>
