<svg width="26" height="24" viewBox="0 0 26 24" fill="none" xmlns="http://www.w3.org/2000/svg">
<path d="M19.9303 18.2044C17.61 16.5218 14.9981 15.1959 12.1998 14.2801C9.39141 13.3808 6.37166 12.972 3.41231 13.3808C2.25053 13.5491 1.11514 13.8419 0.0301971 14.2529V16.5421C0.360398 16.4044 0.70413 16.2949 1.05691 16.215C3.63436 15.5159 6.37966 15.497 8.96864 16.1605C11.5595 16.8059 13.9961 17.8777 16.1556 19.3218C18.0221 20.5375 19.7517 21.9158 21.3194 23.4369H21.4402C22.0281 23.4394 22.6108 23.3371 23.1549 23.1361C23.699 22.935 24.1938 22.639 24.6109 22.265C23.201 20.7772 21.6333 19.4172 19.9303 18.2044Z" fill="#FFCD11"/>
<path d="M26 15.8335C24.1546 14.3025 22.0686 13.026 19.8095 12.0455C17.0983 10.8811 14.1685 10.1877 11.1731 10.0016C8.13267 9.81611 5.0821 10.1869 2.20441 11.0916C1.46357 11.3315 0.738831 11.604 0.0301971 11.9092V13.8169C1.06122 13.3292 2.15726 12.9629 3.29152 12.7268C6.37166 12.0727 9.63299 12.2635 12.6527 12.9993C15.7105 13.7794 18.6071 15.0036 21.2288 16.6238C22.91 17.6285 24.4867 18.7686 25.9396 20.0304C25.9748 19.8228 25.995 19.6135 26 19.4036V15.8335Z" fill="#FFCD11"/>
<path d="M14.8269 20.8479C12.9813 19.3485 10.8406 18.1746 8.51568 17.3869C6.18366 16.5941 3.6525 16.4053 1.2079 16.8419C0.815331 16.9236 0.392567 17.0326 0 17.1416V19.4036C0.00318809 20.4796 0.478256 21.5108 1.32137 22.2716C2.16449 23.0325 3.30708 23.4613 4.49942 23.4641H17.6957C16.8326 22.5127 15.8721 21.6367 14.8269 20.8479Z" fill="#FFCD11"/>
<path d="M2.62718 7.60336C5.77586 6.26918 9.13957 5.39529 12.5923 5.0144C16.0975 4.59516 19.6578 4.75213 23.101 5.47769C24.0861 5.69274 25.0545 5.96584 26 6.29525V4.08783C26 3.00837 25.5269 1.97273 24.684 1.20689C23.8411 0.441052 22.6967 0.00719636 21.5006 0H4.52962C3.33728 0.00287715 2.19468 0.43161 1.35157 1.19249C0.508454 1.95338 0.0333852 2.98453 0.0301971 4.06057V4.06057V8.82971C0.875726 8.39367 1.72125 7.98489 2.62718 7.60336" fill="#FFCD11"/>
<path d="M22.5273 7.33085C19.3515 6.45581 16.0269 6.105 12.7131 6.29527C9.35132 6.46404 6.03966 7.10775 2.89895 8.20292C1.93264 8.5572 0.966318 8.93873 0.0301971 9.37476V11.4187C0.664343 11.0917 1.29849 10.8191 1.93264 10.5466C4.85877 9.39446 8.01097 8.78288 11.2033 8.74796C14.4348 8.71726 17.643 9.24452 20.6551 10.3013C22.5312 10.9616 24.3232 11.8022 26 12.8085V8.6117C24.8887 8.08892 23.7262 7.66014 22.5273 7.33085Z" fill="#FFCD11"/>
</svg>
