<svg id="Layer_1" data-name="Layer 1" xmlns="http://www.w3.org/2000/svg" width="24" height="24" viewBox="0 0 24 24">
  <title>baseline-articulated-truck_normal-24px</title>
  <path d="M0,0H24V24H0Z" style="fill: none"/>
  <path d="M8,8.19H7.52V6.9L6.67,5.81,6.59,4.4,6,3.89v.53l.2.12,0,1.58L6.88,7l-.36.76,0,.43-2.36.14-.72.47,0,4.45L4,14.26l-3-.11v2l3,.66v.78l2.45-.78a3.35,3.35,0,0,0,3.4,3.3,3.44,3.44,0,0,0,3.4-3.4v-.3h0l.31.4h2.21l7.2-2-.32-3.42L15,9,12.89,5.44s-.13-.28-.68-.28H8Zm3.48,8.62a1.6,1.6,0,0,1-3.2,0v-.3A1.71,1.71,0,0,1,9.87,15a1.62,1.62,0,0,1,1.6,1.5Zm2.35-7.69-1,0L10.08,9,9.9,7.76l0-.92H9.43v2.1l-.33,0v-3H12Z"/>
</svg>
