<svg id="Layer_1" data-name="Layer 1" xmlns="http://www.w3.org/2000/svg" width="24" height="24" viewBox="0 0 24 24">
  <path d="M14.67,12l-3-7H8.3a.88.88,0,0,0-.9.9V8l-6,3.5v4.2H3.2v-.9a3.48,3.48,0,0,0,3.5,3.5,3.42,3.42,0,0,0,3.5-3.2v.5h4.6L16.2,12ZM5.1,14.6a1.6,1.6,0,0,1,1.5-1.4,1.52,1.52,0,0,1,1.5,1.4v.3a1.47,1.47,0,0,1-1.5,1.5,1.54,1.54,0,0,1-1.5-1.5ZM11,6.4l2,4.8H8.8V6.4Z" transform="translate(0 0)"/>
  <path d="M19.42,12a3.15,3.15,0,1,0,3.15,3.15A3.15,3.15,0,0,0,19.42,12Zm0,5.12a2,2,0,1,1,2-2A2,2,0,0,1,19.42,17.12Zm0-2.29a.33.33,0,0,0-.32.32.32.32,0,0,0,.32.31.31.31,0,0,0,.31-.31A.32.32,0,0,0,19.42,14.83Z" transform="translate(0 0)"/>
  <path d="M0,0H24V24H0Z" transform="translate(0 0)" style="fill: none"/>
</svg>
