<svg xmlns="http://www.w3.org/2000/svg" viewBox="0 0 24 24">
	<path d="M7.3,15.4v2h10v-2H7.3z M13.1,8.2c0,1.7-1.3,3-3,3s-3-1.3-3-3s1.3-3,3-3S13.1,6.6,13.1,8.2z M18.6,6.4v6.2H6.1V6.4H4.3v6.2
		c0,1,0.8,1.8,1.8,1.8h12.4c1,0,1.8-0.8,1.8-1.8V6.4H18.6z M15.4,19.7c0,0.7-0.6,1.3-1.3,1.3s-1.3-0.6-1.3-1.3
		s0.6-1.3,1.3-1.3S15.4,19,15.4,19.7z M11.8,19.7c0,0.7-0.6,1.3-1.3,1.3s-1.3-0.6-1.3-1.3s0.6-1.3,1.3-1.3S11.8,19,11.8,19.7z
		M17.5,3.2c0,1.7-1.3,3-3,3s-3-1.3-3-3s1.3-3,3-3S17.5,1.5,17.5,3.2z M13.6,22.5c0,0.7-0.6,1.3-1.3,1.3S11,23.2,11,22.5
		s0.6-1.3,1.3-1.3S13.6,21.8,13.6,22.5z"/>
</svg>
