<?xml version="1.0" encoding="utf-8"?>
<!-- Generator: Adobe Illustrator 22.0.1, SVG Export Plug-In . SVG Version: 6.00 Build 0)  -->
<svg version="1.1" id="Layer_1" xmlns="http://www.w3.org/2000/svg" xmlns:xlink="http://www.w3.org/1999/xlink" x="0px" y="0px"
	 viewBox="0 0 24 24" style="enable-background:new 0 0 24 24;" xml:space="preserve">
<g>
	<g>
		<path d="M17.8,16.1l-2.4-8.5L14,4.9v1.8l-0.6,0.5v2.7H14l0,8.3h7.8L17.8,16.1z"/>
		<path d="M12.6,10V7.5c0,0-7,5-7.1,5l-0.5,0c-0.7,0.1-1.3,0.4-1.3,0.4c-0.5,0.3-0.7,0.4-1.2,1c-0.2,0.4-0.3,0.8-0.3,1.3
			c0,0-0.1,0.6,0.3,1.4c0,0,0.4,0.8,1.2,1.2c0.4,0.2,1.2,0.3,1.7,0.3l7.9,0l0-2.8l-3.1-1.1L12.6,10z M5.1,17.2
			c-0.9,0-1.7-0.8-1.7-1.7c0-0.9,0.8-1.7,1.7-1.7s1.7,0.8,1.7,1.7C6.8,16.3,6,17.2,5.1,17.2z"/>
	</g>
</g>
</svg>
