<svg id="Dragline" xmlns="http://www.w3.org/2000/svg" width="24" height="24" viewBox="0 0 24 24">
  <title>baseline-dragline_normal-24px</title>
  <g>
    <path d="M1.5,13.8V21H18.4l-1-13.2H15.2l-3,4Z"/>
    <polygon points="19.8 21 23 21 19.5 17.7 19.8 21"/>
    <path d="M1.5,12.8v1.4h1V13.1c0-.6.2-.9.8-.9s.7.3.7.9v1.1H5V12.8a1.75,1.75,0,0,0-1.7-1.7A1.84,1.84,0,0,0,1.5,12.8Z"/>
    <path d="M12.5,10l1.1.8.6-.8-.9-.7c-.5-.4-.6-.7-.2-1.1s.7-.3,1.1,0l.9.7.6-.8-1.1-.8a1.74,1.74,0,0,0-2.4.3A1.85,1.85,0,0,0,12.5,10Z"/>
    <rect x="0.19" y="6.69" width="9.1" height="1.7" transform="translate(-4 9.23) rotate(-68.78)"/>
    <polygon points="6 2.1 5.3 3.8 12.6 8.9 13.6 7.5 6 2.1"/>
  </g>
  <path d="M0,0H24V24H0Z" style="fill: none"/>
</svg>
