<svg id="Layer_1" data-name="Layer 1" xmlns="http://www.w3.org/2000/svg" width="24" height="24" viewBox="0 0 24 24">
  <title>Edge-No-Network-Connection_ico-24px</title>
  <path d="M0,0H24V24H0ZM0,0H24V24H0Z" style="fill: none"/>
  <path d="M17.56,14.24a6,6,0,0,0-7.8-7.8l1.62,1.62A4.2,4.2,0,0,1,12,8a4,4,0,0,1,4,4,4.46,4.46,0,0,1-.05.63ZM12,4a8,8,0,0,1,8,8,7.9,7.9,0,0,1-.95,3.74l1.47,1.47A9.86,9.86,0,0,0,22,12,10,10,0,0,0,6.79,3.47L8.25,4.93A8,8,0,0,1,12,4ZM3.27,2.5,2,3.77l2.1,2.1A10,10,0,0,0,7,20.65l1-1.73A8,8,0,0,1,4,12,7.9,7.9,0,0,1,5.53,7.31L7,8.75a6,6,0,0,0,2,8.44l1-1.74a3.94,3.94,0,0,1-1.56-5.24L10,11.79,10,12a2,2,0,0,0,2,2l.21,0h0l7.51,7.51L21,20.23,4.27,3.5Z" style="fill: #d32f2f"/>
</svg>
