<svg id="Layer_1" data-name="Layer 1" xmlns="http://www.w3.org/2000/svg" width="24" height="24" viewBox="0 0 24 24">
  <path d="M0,0H24V24H0Z" style="fill: none"/>
  <path d="M11,4.07v-2A10,10,0,0,0,5.68,4.26L7.1,5.69A7.94,7.94,0,0,1,11,4.07Zm-5.31,3L4.26,5.68A10,10,0,0,0,2.05,11h2A7.94,7.94,0,0,1,5.69,7.1ZM4.07,13h-2a10,10,0,0,0,2.21,5.32l1.43-1.43A7.87,7.87,0,0,1,4.07,13Zm1.61,6.74A10,10,0,0,0,11,22v-2a7.94,7.94,0,0,1-3.9-1.62ZM22,12a10,10,0,0,1-8.95,10v-2a8,8,0,0,0,0-15.86v-2A10,10,0,0,1,22,12ZM11.55,7.43h-1.5v6l5.25,3.14.75-1.22-4.5-2.67Z" style="fill: #f0f5fa"/>
</svg>
