<?xml version="1.0" encoding="utf-8"?>
<!-- Generator: Adobe Illustrator 24.1.1, SVG Export Plug-In . SVG Version: 6.00 Build 0)  -->
<svg version="1.1" id="Layer_1" xmlns="http://www.w3.org/2000/svg" xmlns:xlink="http://www.w3.org/1999/xlink" x="0px" y="0px"
	 viewBox="0 0 24 24" style="enable-background:new 0 0 24 24;" xml:space="preserve">
<style type="text/css">
	.st0{fill:none;}
	.st1{fill:#7D8287;}
</style>
<g>
	<path class="st0" d="M0,0h24v24H0V0z"/>
</g>
<g>
	<g>
		<path class="st1" d="M12,7c-3.3,0-6,2.7-6,6c0,1.7,0.7,3.1,1.8,4.2l1.4-1.4C8.4,15.1,8,14.1,8,13c0-2.2,1.8-4,4-4s4,1.8,4,4
			c0,1.1-0.4,2.1-1.2,2.8l1.4,1.4c1.1-1.1,1.8-2.6,1.8-4.2C18,9.7,15.3,7,12,7z M12,3C6.5,3,2,7.5,2,13c0,2.8,1.1,5.3,2.9,7.1
			l1.4-1.4C4.9,17.2,4,15.2,4,13c0-4.4,3.6-8,8-8c2.5,0,4.8,1.2,6.2,3h2.4C18.9,5,15.7,3,12,3z M12,11c-1.1,0-2,0.9-2,2
			c0,0.6,0.2,1.1,0.6,1.4c0.4,0.4,0.9,0.6,1.4,0.6s1.1-0.2,1.4-0.6c0.4-0.4,0.6-0.9,0.6-1.4C14,11.9,13.1,11,12,11z M20,10h2v6h-2
			V10z M20,18h2v2h-2V18z"/>
	</g>
</g>
</svg>
