<svg id="Layer_1" data-name="Layer 1" xmlns="http://www.w3.org/2000/svg" width="24" height="24" viewBox="0 0 24 24">
  <defs>
    <style>
      .cls-1 {
        fill: none;
      }

      .cls-2 {
        fill: #7d8287;
      }
    </style>
  </defs>
  <rect class="cls-1" width="24" height="24"/>
  <path class="cls-2" d="M18.85,10.39l1.06-1.06a2,2,0,0,0,0-2.83L18.5,5.09a2,2,0,0,0-2.83,0L14.61,6.15ZM13.19,7.56,4,16.76V21H8.24l9.19-9.19ZM19,17.5c0,2.19-2.54,3.5-5,3.5a1,1,0,0,1,0-2c1.54,0,3-.73,3-1.5,0-.47-.48-.87-1.23-1.2l1.48-1.48A3,3,0,0,1,19,17.5ZM4.58,13.35A2.67,2.67,0,0,1,3,11C3,9.2,4.89,8.37,6.56,7.64,7.59,7.18,9,6.56,9,6S8.22,5,7,5a2.43,2.43,0,0,0-1.83.64,1,1,0,0,1-1.4.12,1,1,0,0,1-.15-1.38A4.25,4.25,0,0,1,7,3c2.24,0,4,1.32,4,3,0,1.87-1.93,2.72-3.64,3.47C6.42,9.88,5,10.5,5,11c0,.31.43.6,1.07.86Z"/>
</svg>
