<svg id="Layer_1" data-name="Layer 1" xmlns="http://www.w3.org/2000/svg" width="24" height="24" viewBox="0 0 24 24">
  <path d="M0,0H24V24H0Z" style="fill: none"/>
  <path d="M12,2A10,10,0,1,0,22,12,10,10,0,0,0,12,2Z" style="fill: #03a9f4"/>
  <g>
    <path d="M3,3H21V21H3Z" style="fill: none"/>
    <path d="M12,7.43A1.58,1.58,0,1,1,10.42,9,1.57,1.57,0,0,1,12,7.43m0,6.74c2.23,0,4.58,1.1,4.58,1.58v.83H7.43v-.83c0-.48,2.34-1.58,4.57-1.58M12,6a3,3,0,1,0,3,3A3,3,0,0,0,12,6Zm0,6.75c-2,0-6,1-6,3V18H18V15.75C18,13.76,14,12.75,12,12.75Z" style="fill: #191e23"/>
  </g>
</svg>
