<svg id="Layer_1" data-name="Layer 1" xmlns="http://www.w3.org/2000/svg" width="24" height="24" viewBox="0 0 24 24">
  <rect width="24" height="24" style="fill: none"/>
  <path d="M18.32,4.26A10,10,0,0,0,13,2.05v2a7.94,7.94,0,0,1,3.9,1.62ZM19.93,11h2a10,10,0,0,0-2.21-5.32L18.31,7.1A7.94,7.94,0,0,1,19.93,11Zm-1.62,5.9,1.43,1.43A10,10,0,0,0,22,13h-2A8,8,0,0,1,18.31,16.9Zm-5.31,3v2a10,10,0,0,0,5.32-2.21l-1.43-1.43A7.87,7.87,0,0,1,13,19.93ZM13,12V7H11v5H7l5,5,5-5Zm-2,7.93v2a10,10,0,0,1,0-19.9v2a8,8,0,0,0,0,15.86Z" style="fill: #7d8287"/>
</svg>
