<?xml version="1.0" encoding="utf-8"?>
<!-- Generator: Adobe Illustrator 24.1.1, SVG Export Plug-In . SVG Version: 6.00 Build 0)  -->
<svg version="1.1" id="Layer_1" xmlns="http://www.w3.org/2000/svg" xmlns:xlink="http://www.w3.org/1999/xlink" x="0px" y="0px"
	 viewBox="0 0 24 24" style="enable-background:new 0 0 24 24;" xml:space="preserve">
<style type="text/css">
	.st0{fill:none;}
	.st1{fill:#7D8287;}
</style>
<rect class="st0" width="24" height="24"/>
<path class="st1" d="M5.7,19.7c1.5,1.2,3.4,2,5.3,2.2v-2c-1.4-0.2-2.8-0.7-3.9-1.6L5.7,19.7z M4.1,13h-2c0.2,2,1,3.8,2.2,5.3
	l1.4-1.4C4.8,15.7,4.2,14.4,4.1,13z M5.7,7.1L4.3,5.6C3,7.1,2.2,9,2,11h2C4.2,9.5,4.8,8.2,5.7,7.1z M11,4.1v-2C9,2.3,7.2,3,5.7,4.3
	l1.4,1.4C8.2,4.8,9.6,4.2,11,4.1L11,4.1z M11,12v5h2v-5h4l-5-5l-5,5H11z M13,4V2c5.5,0.6,9.5,5.5,9,10.9c-0.5,4.7-4.2,8.5-9,9v-2
	c4.4-0.6,7.5-4.6,6.9-9C19.4,7.4,16.6,4.5,13,4L13,4z"/>
</svg>
