<svg id="Layer_1" data-name="Layer 1" xmlns="http://www.w3.org/2000/svg" width="20.06" height="23.83" viewBox="0 0 20.06 23.83">
  <defs>
    <style>
      .cls-1 {
        fill: #7d8287;
        fill-rule: evenodd;
      }
    </style>
  </defs>
  <path id="Shape_2_copy" data-name="Shape 2 copy" class="cls-1" d="M14.53,5.73,8.8,0V3.87a10.06,10.06,0,0,0,0,20V21.29a7.54,7.54,0,0,1,0-14.88v4.92ZM20,12.59a10,10,0,0,0-2-4.9l-1.8,1.79a7.38,7.38,0,0,1,1.3,3.11Zm-8.72,8.69v2.54a10,10,0,0,0,4.91-2L14.42,20A7.47,7.47,0,0,1,11.32,21.28Zm4.89-3.05L18,20a10,10,0,0,0,2-4.89H17.51A7.47,7.47,0,0,1,16.21,18.23Z" transform="translate(0.02)"/>
</svg>
