<svg id="Layer_1" data-name="Layer 1" xmlns="http://www.w3.org/2000/svg" width="24" height="24" viewBox="0 0 24 24">
  <path d="M0,0H24V24H0Z" style="fill: none"/>
  <path d="M12,5.67A6.33,6.33,0,1,0,18.33,12,6.32,6.32,0,0,0,12,5.67Zm0,11.25A4.92,4.92,0,1,1,16.92,12,4.92,4.92,0,0,1,12,16.92ZM21.14,12a.7.7,0,0,1,.7-.7H24a11.8,11.8,0,0,0-1.33-4.65l-1.79,1a.71.71,0,0,1-.94-.36h0a.71.71,0,0,1,.23-.86l1.81-1A12,12,0,0,0,18.57,2l-1,1.8a.68.68,0,0,1-.91.3h-.09a.7.7,0,0,1-.29-.95h0V3.09l1-1.79A11.82,11.82,0,0,0,12.7,0V2.16a.7.7,0,1,1-1.4,0h0V0A11.8,11.8,0,0,0,6.65,1.33l1,1.79a.71.71,0,0,1-.36.94h0a.71.71,0,0,1-.86-.23L5.43,2A12.18,12.18,0,0,0,2,5.43l1.8,1a.71.71,0,0,1-.71,1.22l-1.79-1A11.81,11.81,0,0,0,0,11.3H2.16a.7.7,0,1,1,0,1.4H0a11.8,11.8,0,0,0,1.33,4.65l1.79-1a.71.71,0,0,1,.94.36h0a.71.71,0,0,1-.23.86l-1.8,1A12.07,12.07,0,0,0,5.43,22l1-1.8a.68.68,0,0,1,.91-.3h.09a.7.7,0,0,1,.29.95h0v.05l-1,1.79A12.23,12.23,0,0,0,11.3,24V21.84a.7.7,0,0,1,1.4,0V24a12,12,0,0,0,4.65-1.33l-1-1.79a.7.7,0,0,1,.17-1l0,0h.05a.7.7,0,0,1,1,.15l0,0v.07l1,1.8A12.32,12.32,0,0,0,22,18.57l-1.81-1a.71.71,0,0,1,.71-1.22l1.79,1A11.83,11.83,0,0,0,24,12.7H21.84a.7.7,0,0,1-.7-.7ZM12,19.73A7.73,7.73,0,1,1,19.74,12,7.73,7.73,0,0,1,12,19.73Z" style="fill: #7d8287"/>
  <rect y="19" width="24" height="5" style="fill: #7d8287"/>
</svg>
