<?xml version="1.0" encoding="utf-8"?>
<!-- Generator: Adobe Illustrator 22.0.1, SVG Export Plug-In . SVG Version: 6.00 Build 0)  -->
<svg version="1.1" id="Layer_1" xmlns="http://www.w3.org/2000/svg" xmlns:xlink="http://www.w3.org/1999/xlink" x="0px" y="0px"
	 viewBox="0 0 24 24" style="enable-background:new 0 0 24 24;" xml:space="preserve">
<style type="text/css">
	.st0{fill:none;}
</style>
<path class="st0" d="M0,0h24v24H0V0z M0,0h24v24H0V0z M0,0h24v24H0V0z M0,0h24v24H0V0z M0,0h24v24H0V0z"/>
<path d="M17.6,6c-1.6-1.2-3.5-2-5.6-2c-1.8,0-3.5,0.6-4.9,1.5l1.5,1.5C9.5,6.3,10.7,6,12,6c3.9,0,7,3.1,7,7c0,1.3-0.4,2.5-0.9,3.5
	l1.5,1.5c0.9-1.4,1.5-3.1,1.5-4.9c0-2.1-0.7-4.2-2-5.6l-0.3-0.3l-0.4-0.4L18,6.3L17.6,6z M11,9.4l2,2V8h-2C11,8,11,9.4,11,9.4z M3,4
	L1.8,5.3L4.5,8C3.5,9.4,3,11.2,3,13c0,5,4,9,9,9c1.8,0,3.6-0.5,5-1.5l2.5,2.5l1.3-1.3L13,14L3,4z M12,20c-3.9,0-7-3.1-7-7
	c0-1.3,0.3-2.5,0.9-3.5l9.6,9.6C14.5,19.7,13.3,20,12,20z"/>
</svg>
