<?xml version="1.0" encoding="utf-8"?>
<!-- Generator: Adobe Illustrator 24.1.1, SVG Export Plug-In . SVG Version: 6.00 Build 0)  -->
<svg version="1.1" id="Layer_1" xmlns="http://www.w3.org/2000/svg" xmlns:xlink="http://www.w3.org/1999/xlink" x="0px" y="0px"
	 viewBox="0 0 24 24" style="enable-background:new 0 0 24 24;" xml:space="preserve">
<style type="text/css">
	.st0{fill:none;}
	.st1{fill:#7D8287;}
</style>
<path class="st0" d="M0,0h24v24H0V0z"/>
<path class="st1" d="M12,11c-1.1,0-2,0.9-2,2s0.9,2,2,2s2-0.9,2-2S13.1,11,12,11z M18,13c0-3.3-2.7-6-6-6s-6,2.7-6,6
	c0,2.2,1.2,4.1,3,5.2l1-1.7c-1.2-0.7-2-2-2-3.4c0-2.2,1.8-4,4-4s4,1.8,4,4c0,1.5-0.8,2.8-2,3.4l1,1.7C16.8,17.2,18,15.2,18,13z
	 M12,3C6.5,3,2,7.5,2,13c0,3.7,2,6.9,5,8.6l1-1.7c-2.4-1.4-4-4-4-6.9c0-4.4,3.6-8,8-8s8,3.6,8,8c0,3-1.6,5.5-4,6.9l1,1.7
	c3-1.7,5-4.9,5-8.6C22,7.5,17.5,3,12,3z"/>
</svg>
