<?xml version="1.0" encoding="utf-8"?>
<!-- Generator: Adobe Illustrator 24.1.1, SVG Export Plug-In . SVG Version: 6.00 Build 0)  -->
<svg version="1.1" id="Layer_1" xmlns="http://www.w3.org/2000/svg" xmlns:xlink="http://www.w3.org/1999/xlink" x="0px" y="0px"
	 viewBox="0 0 24 24" style="enable-background:new 0 0 24 24;" xml:space="preserve">
<style type="text/css">
	.st0{fill:none;}
	.st1{fill:#7D8287;}
</style>
<g>
	<path class="st0" d="M0,0h24v24H0V0z"/>
</g>
<g>
	<g>
		<path class="st1" d="M2.8,2.8L1.4,4.2l2.7,2.7C2.8,8.6,2,10.7,2,13c0,2.8,1.1,5.3,2.9,7.1l1.4-1.4C4.9,17.2,4,15.2,4,13
			c0-1.8,0.6-3.4,1.5-4.7l1.4,1.4C6.3,10.7,6,11.8,6,13c0,1.7,0.7,3.1,1.8,4.2l1.4-1.4C8.4,15.1,8,14.1,8,13c0-0.6,0.1-1.2,0.4-1.8
			l1.6,1.6c0,0.1,0,0.1,0,0.1c0,0.6,0.2,1.1,0.6,1.4c0.4,0.4,0.9,0.6,1.4,0.6c0.1,0,0.1,0,0.2,0l7.6,7.6l1.4-1.4L2.8,2.8z
			 M17.7,14.9c0.2-0.6,0.3-1.2,0.3-1.9c0-3.3-2.7-6-6-6c-0.6,0-1.3,0.1-1.9,0.3L11.8,9c0.1,0,0.1,0,0.2,0c2.2,0,4,1.8,4,4
			c0,0.1,0,0.1,0,0.2L17.7,14.9z M12,5c4.4,0,8,3.6,8,8c0,1.2-0.3,2.4-0.8,3.4l1.5,1.5c0.8-1.4,1.3-3.1,1.3-4.9c0-5.5-4.5-10-10-10
			c-1.8,0-3.4,0.5-4.9,1.3l1.5,1.5C9.6,5.3,10.8,5,12,5z"/>
	</g>
</g>
</svg>
