<?xml version="1.0" encoding="utf-8"?>
<!-- Generator: Adobe Illustrator 22.0.1, SVG Export Plug-In . SVG Version: 6.00 Build 0)  -->
<svg version="1.1" id="Layer_1" xmlns="http://www.w3.org/2000/svg" xmlns:xlink="http://www.w3.org/1999/xlink" x="0px" y="0px"
	 viewBox="0 0 24 24" style="enable-background:new 0 0 24 24;" xml:space="preserve">
<path d="M4.1,16c0,0.9,0,4,0,4c0,0.5,0.4,1,1,1h2c0.6,0,1-0.5,1-1v-2h8v2c0,0.5,0.5,1,1,1h2c0.5,0,1-0.5,1-1c0,0,0-3.1,0-4v-6h1V7
	h-1V4h-16v3h-1v3h1C4.1,10,4.1,16,4.1,16z M6.5,12.7c-0.3,0-0.5-0.2-0.5-0.5s0.2-0.5,0.5-0.5S7,11.9,7,12.2S6.8,12.7,6.5,12.7z
	 M17.5,12.7c-0.3,0-0.5-0.2-0.5-0.5s0.2-0.5,0.5-0.5s0.5,0.2,0.5,0.5S17.8,12.7,17.5,12.7z M18.5,10h-1V8.5H15V10H5.5V7h13V10z
	 M15,17H9v-5.7h6V17z M5,12.7c-0.3,0-0.5-0.2-0.5-0.5s0.2-0.5,0.5-0.5s0.5,0.2,0.5,0.5S5.3,12.7,5,12.7z M19,12.7
	c-0.3,0-0.5-0.2-0.5-0.5s0.2-0.5,0.5-0.5s0.5,0.2,0.5,0.5S19.3,12.7,19,12.7z"/>
</svg>
