<?xml version="1.0" encoding="utf-8"?>
<!-- Generator: Adobe Illustrator 22.0.1, SVG Export Plug-In . SVG Version: 6.00 Build 0)  -->
<svg version="1.1" id="Layer_1" xmlns="http://www.w3.org/2000/svg" xmlns:xlink="http://www.w3.org/1999/xlink" x="0px" y="0px"
	 viewBox="0 0 24 24" style="enable-background:new 0 0 24 24;" xml:space="preserve">
<style type="text/css">
	.st0{fill:none;}
</style>
<path class="st0" d="M0,24"/>
<path d="M14.5,10.1h-0.2L15.2,7l-1-1.9L3.3,5.2L2.1,7v5.7h3.6L5.9,13c-0.3,0-0.6,0-0.9,0c-2,0-3.5,1.6-3.5,3.5c0,2,1.6,3.5,3.5,3.5
	c2,0,3.5-1.4,3.5-3.4c0,0.6,0,0.5,0,0.5h4.7v-0.5c0,2,1.6,3.4,3.5,3.4c2,0,3.5-1.6,3.5-3.5c0-0.1,0-0.2,0-0.3v1.9h1.9V11l-1.5-0.9
	V7.3c0,0,0-0.9-0.9-0.9c-1,0-3,0-3,0L14.5,10.1z M5,18.2c-0.9,0-1.6-0.7-1.6-1.6S4.1,15,5,15s1.6,0.7,1.6,1.6
	C6.7,17.5,6,18.2,5,18.2z M18.6,16.6c0,0.9-0.7,1.6-1.6,1.6s-1.6-0.7-1.6-1.6c0-0.1,0-0.2,0-0.3c0.1-0.8,0.8-1.5,1.6-1.5
	s1.5,0.6,1.6,1.5C18.6,16.4,18.6,16.5,18.6,16.6z M19.5,7.6v2.5h-3.4l1.5-2.5C17.6,7.6,19.5,7.6,19.5,7.6z"/>
</svg>
