<?xml version="1.0" encoding="utf-8"?>
<!-- Generator: Adobe Illustrator 22.0.1, SVG Export Plug-In . SVG Version: 6.00 Build 0)  -->
<svg version="1.1" id="Layer_1" xmlns="http://www.w3.org/2000/svg" xmlns:xlink="http://www.w3.org/1999/xlink" x="0px" y="0px"
	 viewBox="0 0 24 24" style="enable-background:new 0 0 24 24;" xml:space="preserve">
<g>
	<g>
		<path d="M15.2,8.4L1.5,6.2v5.1h9.5l1.2,1H4.8v1.3l-1.7,1.5H1.5l1,4h10l-1-4H9.6l-1.7-1.7h5.4l0.3,0.3L13.1,16c0,2,1.6,3.3,3.6,3.3
			s3.6-1.6,3.6-3.6c0-0.1,0-0.2,0-0.3l0,0v1.9h2.1v-3.2L15.2,8.4z M16.7,17.4c-0.9,0-1.7-0.7-1.7-1.7c0-0.1,0-0.2,0-0.3
			c0.1-0.8,0.8-1.4,1.6-1.4c0.8,0,1.5,0.6,1.6,1.4c0,0.1,0,0.2,0,0.3C18.5,16.7,17.6,17.4,16.7,17.4z"/>
	</g>
</g>
</svg>
