<?xml version="1.0" encoding="utf-8"?>
<!-- Generator: Adobe Illustrator 22.0.1, SVG Export Plug-In . SVG Version: 6.00 Build 0)  -->
<svg version="1.1" id="Layer_1" xmlns="http://www.w3.org/2000/svg" xmlns:xlink="http://www.w3.org/1999/xlink" x="0px" y="0px"
	 viewBox="0 0 24 24" style="enable-background:new 0 0 24 24;" xml:space="preserve">
<path d="M21.6,5.7V4.3h-4.4l-2.7,2.3H2.1v2.7l2.7,1l1.3,2.6V13c-0.3-0.1-0.5-0.1-0.8-0.1c-1.8,0-3.5,1.4-3.5,3.5s1.6,3.4,3.6,3.4
	S9,18.5,9,16.6c0,0.6,0,1.3,0,1.3h4.4v-1.3c0,1.8,1.4,3.2,3.5,3.2s3.5-1.4,3.5-3.5c0-0.1,0-0.2,0-0.3l0,0v1.8h1.7v-6.7l-1.3-1V7.4
	c0,0,0-1-1-1s-2.3,0-2.3,0l0.5-1L21.6,5.7L21.6,5.7z M5.5,17.9c-0.9,0-1.5-0.7-1.5-1.5c0-0.9,0.7-1.5,1.5-1.5S7,15.5,7,16.4
	C6.9,17.1,6.3,17.9,5.5,17.9z M18.4,16.3c0,0.9-0.7,1.5-1.5,1.5s-1.5-0.7-1.5-1.5c0-0.1,0-0.2,0-0.3c0.1-0.8,0.8-1.3,1.4-1.3
	c0.8,0,1.4,0.6,1.4,1.3C18.3,16.1,18.4,16.2,18.4,16.3z M19.2,8v2.2h-3.7l1.3-2.3L19.2,8L19.2,8z"/>
</svg>
