<?xml version="1.0" encoding="utf-8"?>
<!-- Generator: Adobe Illustrator 22.0.1, SVG Export Plug-In . SVG Version: 6.00 Build 0)  -->
<svg version="1.1" id="Layer_1" xmlns="http://www.w3.org/2000/svg" xmlns:xlink="http://www.w3.org/1999/xlink" x="0px" y="0px"
	 viewBox="0 0 24 24" style="enable-background:new 0 0 24 24;" xml:space="preserve">
<g>
	<g>
		<path d="M19.8,4.1L19.8,4.1c-0.2-0.4-0.5-0.7-1-1.1l0,0c-0.4-0.4-1.1-0.5-1.6-0.6c-0.5,0-1.2,0.1-1.7,0.4L15,3
			c-0.1,0.1-0.2,0.1-0.3,0.2L6.3,9.9l2.9,2.7l8.4-3.8c0.1,0,0.2-0.1,0.4-0.2l0.6-0.4C19,8,19.3,7.6,19.7,7.3l0,0
			c0.4-0.4,0.5-1.1,0.6-1.6C20.1,5.2,20,4.6,19.8,4.1z M18.3,5.9c-0.2,0.5-0.7,1-1.3,0.9h-0.1c-0.6-0.1-1.2-0.7-1.1-1.3
			c0-0.2,0.1-0.4,0.1-0.5l0,0c0.2-0.4,0.7-0.7,1.2-0.7C18.1,4.2,18.6,5.1,18.3,5.9z"/>
	</g>
</g>
<path d="M15.2,19.5c-2.4,2.7-6.7,2.9-9.4,0.4S3,13.2,5.4,10.6C8.3,13.2,11.6,16.4,15.2,19.5z"/>
<path d="M15.8,18.8l1.6-1.9l-0.5-0.4l-4-0.5L15.8,18.8z"/>
</svg>
