<?xml version="1.0" encoding="utf-8"?>
<!-- Generator: Adobe Illustrator 22.0.1, SVG Export Plug-In . SVG Version: 6.00 Build 0)  -->
<svg version="1.1" id="Layer_1" xmlns="http://www.w3.org/2000/svg" xmlns:xlink="http://www.w3.org/1999/xlink" x="0px" y="0px"
	 viewBox="0 0 24 24" style="enable-background:new 0 0 24 24;" xml:space="preserve">
<path d="M15,5.7h-3.7c-1.6,0-1.5,1.8-1.5,1.8v1.8H1.8c0,0,0,4.7,0,6.1c0.7,0,1.4,0,2.1,0c0,1.7,1.4,3.1,3.1,3.1s3.1-1.4,3.1-3.1h3.4
	c0,1.7,1.4,3.1,3.1,3.1c1.7,0,3.1-1.4,3.1-3.1h2.6v-4.3l-3.7-1.8L15,5.7z M6.9,17c-0.9,0-1.5-0.7-1.5-1.5c0-0.8,0.7-1.5,1.5-1.5
	s1.5,0.7,1.5,1.5C8.6,16.3,7.8,17,6.9,17z M12.9,9.3h-1.6V7.5h1.6V9.3z M16.6,17c-0.9,0-1.5-0.7-1.5-1.5c0-0.8,0.7-1.5,1.5-1.5
	c0.9,0,1.5,0.7,1.5,1.5C18.2,16.3,17.5,17,16.6,17z M13.5,9.3V7.5H15l1.9,1.8H13.5z"/>
</svg>
