<?xml version="1.0" encoding="utf-8"?>
<!-- Generator: Adobe Illustrator 22.0.1, SVG Export Plug-In . SVG Version: 6.00 Build 0)  -->
<svg version="1.1" id="Layer_1" xmlns="http://www.w3.org/2000/svg" xmlns:xlink="http://www.w3.org/1999/xlink" x="0px" y="0px"
	 viewBox="0 0 24 24" style="enable-background:new 0 0 24 24;" xml:space="preserve">
<g>
	<g>
		<path d="M20,4.1L20,4.1c-0.2-0.4-0.5-0.7-0.8-1L19.1,3c-0.4-0.4-1-0.5-1.5-0.5C17,2.5,16.5,2.7,16,3l-0.4,0.4
			c-0.1,0.1-0.2,0.2-0.4,0.2L4.2,15.1h2.9l11.3-6.2c0.1-0.1,0.2-0.1,0.4-0.2l0.5-0.4c0.4-0.2,0.5-0.5,0.7-0.8l0.1-0.1
			c0.4-0.5,0.4-1.1,0.4-1.6C20.4,5.2,20.3,4.6,20,4.1z M18.8,6.2c-0.2,0.5-0.6,1-1.3,1h-0.1c-0.6-0.1-1.1-0.6-1.1-1.3
			c0-0.2,0-0.4,0.1-0.5l0,0c0.2-0.5,0.6-0.8,1.2-0.8C18.4,4.5,19.1,5.2,18.8,6.2z M9.5,21.8c3,0,5.3-2.7,5.3-5.8H4.2
			C4.2,19.2,6.5,21.8,9.5,21.8z M13.1,15.6h1.6v-2.2h-0.8L13.1,15.6z"/>
	</g>
</g>
</svg>
