<svg xmlns="http://www.w3.org/2000/svg" viewBox="0 0 24 24">
	<path d="M21,9.6C21,5.9,18.1,3,14.4,3c-3.1,0-5.7,2.2-6.4,5.1C5.2,8.7,3,11.3,3,14.4C3,18.1,5.9,21,9.6,21c3.1,0,5.7-2.2,6.4-5.1
		C18.8,15.3,21,12.7,21,9.6z M9.6,19.2c-2.6,0-4.8-2.1-4.8-4.8c0-2.1,1.3-3.8,3.1-4.5c0.2,3.3,2.8,5.9,6.1,6.1
		C13.3,17.9,11.6,19.2,9.6,19.2z M9.7,9.7c2.5,0.1,4.5,2.1,4.6,4.6C11.8,14.2,9.8,12.2,9.7,9.7z M16.1,14c-0.2-3.3-2.8-5.9-6.1-6.1
		c0.7-1.8,2.4-3.1,4.5-3.1c2.6,0,4.8,2.1,4.8,4.8C19.2,11.6,17.9,13.3,16.1,14z"/>
</svg>
