<?xml version="1.0" encoding="utf-8"?>
<!-- Generator: Adobe Illustrator 22.0.1, SVG Export Plug-In . SVG Version: 6.00 Build 0)  -->
<svg version="1.1" id="Layer_1" xmlns="http://www.w3.org/2000/svg" xmlns:xlink="http://www.w3.org/1999/xlink" x="0px" y="0px"
	 viewBox="0 0 24 24" style="enable-background:new 0 0 24 24;" xml:space="preserve">
<path d="M14.3,10.4L11.7,8c0,0-2.5,0-3.4,0C7.4,8,7.4,8.9,7.4,8.9v1l-4.1,2.6l-2.6,3.2h2.5v-1.2c0,0.1,0,0.2,0,0.3
	c0,1.9,1.5,3.5,3.5,3.5c1.8,0,3.5-1.4,3.5-3.2v0.5l1.9,2.5l6.7,0l4-4.9v-2.7L14.3,10.4z M5.1,14.6c0.1-0.8,0.8-1.4,1.5-1.4
	s1.5,0.6,1.5,1.4c0,0.1,0,0.2,0,0.3c0,0.9-0.7,1.5-1.5,1.5s-1.5-0.7-1.5-1.5C5.1,14.8,5.1,14.7,5.1,14.6z"/>
<image style="overflow:visible;" width="528" height="280" xlink:href="84CFACC9.jpg"  transform="matrix(9.207797e-02 0 0 9.207797e-02 -16.2086 -29.1414)">
</image>
</svg>
