<svg id="Layer_1" data-name="Layer 1" xmlns="http://www.w3.org/2000/svg" width="24" height="24" viewBox="0 0 24 24">
  <path d="M0,0H24V24H0Z" style="fill: none"/>
  <path d="M12.89,22h-.72l.72-5.06H10.36c-.63,0-.24-.54-.22-.56.93-1.65,2.33-4.1,4.2-7.38h.72l-.72,5.06h2.54c.28,0,.44.13.28.47Z" style="fill: #7d8287"/>
  <path d="M18.74,8.54A6.87,6.87,0,0,0,5.91,6.7a5.51,5.51,0,1,0,.59,11h3a1.23,1.23,0,0,1-.33-.39,1.37,1.37,0,0,1,.15-1.43H6.5a3.67,3.67,0,1,1,3.67-3.67h1.21c.18-.31.35-.62.54-.94A5.49,5.49,0,0,0,8,6.87a5,5,0,0,1,9.07,3v.45h1.38a2.75,2.75,0,0,1,0,5.5H17.6l-1.05,1.84h1.9a4.57,4.57,0,0,0,.32-9.13Z" style="fill: #7d8287"/>
</svg>
