<svg xmlns="http://www.w3.org/2000/svg" viewBox="0 0 24 24">
	<path d="M10.5,12.77H4c-.3,0-1,0-1-.75s.87-.79,1.12-.79c4.36,0,8.63,0,13,0a5.22,5.22,0,0,1,1.75.29A3.42,3.42,0,0,1,21,15.12a3.52,3.52,0,0,1-3.18,3,3.45,3.45,0,0,1-3.48-2.3c-.19-.55-.39-1.16.29-1.44s.94.26,1.12.83a1.83,1.83,0,0,0,1.68,1.37,1.8,1.8,0,0,0,1.74-.87,1.89,1.89,0,0,0-1.6-2.93c-1.23-.07-2.47,0-3.71,0Z"/>
	<path d="M9.26,9.69H4.08c-.3,0-1.08,0-1.08-.82s.83-.71,1.17-.71h9.91a5.77,5.77,0,0,0,1,0,1.52,1.52,0,0,0,.32-2.91,1.43,1.43,0,0,0-1.72.44c-.14.16-.19.43-.35.52s-.69.41-1,.33c-.5-.14-.48-.63-.34-1.07a3.06,3.06,0,0,1,3.56-1.78,3.12,3.12,0,0,1,2.3,3.27,3.08,3.08,0,0,1-3,2.76c-1.87.05-3.75,0-5.62,0Z"/>
	<path d="M6.59,14.32H9.65a2.86,2.86,0,0,1,2.88,2.76,3.12,3.12,0,0,1-2.31,3.26,3.07,3.07,0,0,1-3.45-1.56c-.21-.45-.35-.93.14-1.26s.87-.06,1.14.4a1.69,1.69,0,0,0,.19.32,1.48,1.48,0,0,0,1.81.53A1.51,1.51,0,0,0,11,17.14a1.45,1.45,0,0,0-1.39-1.32l-3.2,0H4c-.23,0-1,0-1-.74s.69-.79,1-.79H6.59Z"/>
</svg>
