<svg xmlns="http://www.w3.org/2000/svg" viewBox="0 0 24 24">
	<path d="M17,17a6,6,0,0,0-2.95.8,4.08,4.08,0,0,1-2.05.6,3.81,3.81,0,0,1-2.05-.6,5.84,5.84,0,0,0-5.9,0,4.05,4.05,0,0,1-2,.6v1.95a6,6,0,0,0,3-.8A4.05,4.05,0,0,1,7,18.94a3.87,3.87,0,0,1,2.05.6,5.84,5.84,0,0,0,5.9,0,4.08,4.08,0,0,1,2.05-.6,3.81,3.81,0,0,1,2.05.6,5.9,5.9,0,0,0,2.95.8V18.39a3.81,3.81,0,0,1-2.05-.6A6,6,0,0,0,17,17Zm0-4.45a6.07,6.07,0,0,0-2.95.8,4.18,4.18,0,0,1-2.05.6,3.81,3.81,0,0,1-2.05-.6A5.87,5.87,0,0,0,7,12.54a6,6,0,0,0-2.95.8,4.15,4.15,0,0,1-2,.6v2a6.07,6.07,0,0,0,3-.8,3.8,3.8,0,0,1,4.1,0,5.87,5.87,0,0,0,2.95.8,6,6,0,0,0,2.95-.8,3.8,3.8,0,0,1,4.1,0,5.9,5.9,0,0,0,2.95.8v-2a3.81,3.81,0,0,1-2.05-.6A6,6,0,0,0,17,12.54ZM20,4.46a5.84,5.84,0,0,0-5.9,0,4.18,4.18,0,0,1-2.05.6A3.81,3.81,0,0,1,10,4.46,6,6,0,0,0,7,3.66a5.87,5.87,0,0,0-2.95.8,4.05,4.05,0,0,1-2,.6V7a6.07,6.07,0,0,0,3-.8A4.05,4.05,0,0,1,7,5.59a3.87,3.87,0,0,1,2.05.6A5.87,5.87,0,0,0,12,7,6,6,0,0,0,15,6.19,4.18,4.18,0,0,1,17,5.59a3.81,3.81,0,0,1,2.05.6A5.9,5.9,0,0,0,22,7V5A4,4,0,0,1,20,4.46ZM17,8.09a6.07,6.07,0,0,0-2.95.8,3.8,3.8,0,0,1-4.1,0A5.87,5.87,0,0,0,7,8.09a6,6,0,0,0-2.95.8,3.81,3.81,0,0,1-2,.6v1.95a6.07,6.07,0,0,0,3-.8A4.18,4.18,0,0,1,7,10a3.89,3.89,0,0,1,2.05.6,5.87,5.87,0,0,0,2.95.8,6,6,0,0,0,2.95-.8A4.18,4.18,0,0,1,17,10a3.81,3.81,0,0,1,2.05.6,5.9,5.9,0,0,0,2.95.8V9.49A3.81,3.81,0,0,1,20,8.89,6,6,0,0,0,17,8.09Z"/>
</svg>
