<svg xmlns="http://www.w3.org/2000/svg" viewBox="0 0 24 24">
	<path d="M20.84,6.82l-.33-.13L18.29,9.21,16,8.61c-.18-.78-.35-1.47-.57-2.37l2.45-2.19-.06-.25a9.63,9.63,0,0,0-1.52-.11,3.68,3.68,0,0,0-3.56,4.18,1.47,1.47,0,0,1-.5,1.59C10,11.69,7.76,14,5.51,16.21a6.22,6.22,0,0,0-.77.85,2,2,0,0,0,.19,2.55A2,2,0,0,0,7.55,20a5.76,5.76,0,0,0,.94-.84c2.29-2.27,4.56-4.55,6.84-6.83.33-.33.61-.69,1.18-.48,2.06.78,4.36-1.16,4.49-3.64A8.11,8.11,0,0,0,20.84,6.82Z"/>
	<path d="M13.25,16.41,15.93,14c1,1,2.22,2.11,3.32,3.28a1.8,1.8,0,0,1-.08,2.5,1.75,1.75,0,0,1-2.46.13l0,0C15.51,18.77,14.43,17.59,13.25,16.41Z"/>
	<path d="M10.25,9.55,8.92,11a13.46,13.46,0,0,1-1-1,5.76,5.76,0,0,0-3-2,1.49,1.49,0,0,1-.81-.71C3.72,6.61,3.39,5.87,3,5.08L4.49,3.71c.69.34,1.46.69,2.18,1.1a1.26,1.26,0,0,1,.66.72A6.27,6.27,0,0,0,9.55,8.79C9.79,9,10,9.29,10.25,9.55Z"/>
</svg>
