<svg id="Layer_1" data-name="Layer 1" xmlns="http://www.w3.org/2000/svg" width="24" height="24" viewBox="0 0 24 24">
  <path d="M0,0H24V24H0Z" style="fill: none"/>
  <path d="M19.77,7.23h0L16.06,3.5,15,4.56l2.11,2.11A2.5,2.5,0,0,0,18,11.5a2.56,2.56,0,0,0,1-.21V18.5a1,1,0,0,1-2,0V14a2,2,0,0,0-2-2H14V5a2,2,0,0,0-2-2H6A2,2,0,0,0,4,5V21H14V13.5h1.5v5a2.5,2.5,0,0,0,5,0V9A2.5,2.5,0,0,0,19.77,7.23ZM12,16.5H10v2H8v-2H6v-2H8v-2h2v2h2ZM12,10H6V5h6Zm6,0a1,1,0,1,1,1-1A1,1,0,0,1,18,10Z" style="fill: #7d8287"/>
</svg>
