<svg id="Layer_1" data-name="Layer 1" xmlns="http://www.w3.org/2000/svg" width="24" height="24" viewBox="0 0 24 24">
  <path d="M0,0H24V24H0Z" style="fill: none"/>
  <g>
    <path d="M15.71,19.17a.72.72,0,0,1-.42-.13C11,16.14,10.44,14.21,10,12.79a2.23,2.23,0,0,0-1.31-1.73A1.56,1.56,0,0,0,7.57,11c-1.28.24-2.45.21-3.83-2.49a.75.75,0,1,1,1.33-.69c1,1.94,1.46,1.85,2.23,1.71a3,3,0,0,1,2.08.19,3.66,3.66,0,0,1,2,2.63c.38,1.2.89,2.85,4.7,5.45a.74.74,0,0,1,.2,1A.73.73,0,0,1,15.71,19.17Z" style="fill: #64696e"/>
    <path d="M18.79,16.09a.72.72,0,0,1-.42-.13c-4-2.73-4.42-4-4.57-5.59a3.45,3.45,0,0,0-1.29-2.49A3.61,3.61,0,0,0,10.05,7,4.38,4.38,0,0,1,7.21,5.88a.75.75,0,1,1,1-1.07,3.09,3.09,0,0,0,2,.66,5.06,5.06,0,0,1,3.36,1.35,4.8,4.8,0,0,1,1.72,3.4c.1,1,.19,2,3.92,4.5a.76.76,0,0,1,.2,1A.75.75,0,0,1,18.79,16.09Z" style="fill: #64696e"/>
    <path d="M22.49,14.08a.75.75,0,0,1-.41-.12c-3.18-2.11-3.56-3.43-4-4.82a8.86,8.86,0,0,0-.43-1.29c-1.44-3.31-2.37-4.44-7.07-4a.76.76,0,0,1-.81-.68.74.74,0,0,1,.68-.81c5.59-.5,7,1.2,8.57,4.91a13.19,13.19,0,0,1,.51,1.48c.36,1.26.62,2.18,3.33,4a.76.76,0,0,1,.22,1A.77.77,0,0,1,22.49,14.08Z" style="fill: #64696e"/>
    <path d="M12.08,21.75a.7.7,0,0,1-.49-.19A22.9,22.9,0,0,1,7.66,17c-1-1.5-1.61-2.28-2.29-2.19l-.51.07c-2.19.36-2.95-.12-4.07-4.18a.75.75,0,0,1,1.44-.4c.93,3.34,1.16,3.31,2.39,3.1l.54-.08C6.78,13,7.72,14.39,8.9,16.1a21.5,21.5,0,0,0,3.67,4.33.75.75,0,0,1-.49,1.32Z" style="fill: #64696e"/>
    <path d="M1.51,11.2a.76.76,0,0,1-.6-.29.77.77,0,0,1,.14-1.06A111.51,111.51,0,0,0,9.71,2.54a.74.74,0,0,1,1.06,0,.75.75,0,0,1,0,1.06S6.92,7.26,2,11.05A.74.74,0,0,1,1.51,11.2Z" style="fill: #64696e"/>
    <path d="M12.39,21.67a.75.75,0,0,1-.25-1.46c1.22-.43,6.7-4.8,9.87-7.46a.75.75,0,0,1,1,1.16c-.86.71-8.45,7.05-10.33,7.72A.73.73,0,0,1,12.39,21.67Z" style="fill: #64696e"/>
    <path d="M3.79,14.76a.74.74,0,0,1-.64-.35.77.77,0,0,1,.25-1,14.85,14.85,0,0,0,4.51-3.8c1.71-2.69,4.23-6.06,6.48-6.9a.75.75,0,1,1,.52,1.4c-1.43.54-3.52,2.83-5.74,6.31a16.69,16.69,0,0,1-5,4.27A.68.68,0,0,1,3.79,14.76Z" style="fill: #64696e"/>
    <path d="M9.18,17.88a.79.79,0,0,1-.53-.22.75.75,0,0,1,0-1.06A27.64,27.64,0,0,1,15,11.82C17.64,10.52,18.08,9,18.09,9a.75.75,0,0,1,1.46.36c-.06.22-.61,2.24-3.91,3.85a26.62,26.62,0,0,0-5.93,4.48A.75.75,0,0,1,9.18,17.88Z" style="fill: #64696e"/>
  </g>
</svg>
