<?xml version="1.0" encoding="utf-8"?>
<!-- Generator: Adobe Illustrator 22.0.1, SVG Export Plug-In . SVG Version: 6.00 Build 0)  -->
<svg version="1.1" id="Layer_1" xmlns="http://www.w3.org/2000/svg" xmlns:xlink="http://www.w3.org/1999/xlink" x="0px" y="0px"
	 viewBox="0 0 24 24" style="enable-background:new 0 0 24 24;" xml:space="preserve">
<path d="M14.8,10.1h-1.1l2.6-4V4.3h-4.6V3.8H8.9v0.6H1.9v8.2h4.4l0.1,0.3c-0.3-0.1-0.5-0.1-0.8-0.1c-1.9,0-3.4,1.6-3.4,3.4
	c0,1.9,1.6,3.4,3.4,3.4c1.9,0,3.4-1.4,3.4-3.3c0,0.6,0,1.5,0,1.5h4.6v-1.5c0,1.9,1.6,3.3,3.4,3.3c1.9,0,3.4-1.6,3.4-3.4
	c0-0.1,0-0.2,0-0.3l0,0v1.8h1.8v-6.8l-1.5-0.9V7.3c0,0,0-0.9-0.9-0.9c-1,0-2.9,0-2.9,0L14.8,10.1z M5.5,17.9c-0.9,0-1.6-0.7-1.6-1.6
	c0-0.9,0.7-1.6,1.6-1.6s1.6,0.6,1.6,1.5C7.1,17.1,6.4,17.9,5.5,17.9z M18.6,16.3c0,0.9-0.7,1.6-1.6,1.6c-0.9,0-1.6-0.7-1.6-1.6
	c0-0.1,0-0.2,0-0.3c0.1-0.8,0.8-1.5,1.6-1.5c0.8,0,1.5,0.6,1.6,1.5C18.6,16.1,18.6,16.2,18.6,16.3z M19.5,7.5V10h-3.3l1.5-2.4H19.5z
	"/>
</svg>
