<?xml version="1.0" encoding="utf-8"?>
<!-- Generator: Adobe Illustrator 22.0.1, SVG Export Plug-In . SVG Version: 6.00 Build 0)  -->
<svg version="1.1" id="Layer_1" xmlns="http://www.w3.org/2000/svg" xmlns:xlink="http://www.w3.org/1999/xlink" x="0px" y="0px"
	 viewBox="0 0 24 24" style="enable-background:new 0 0 24 24;" xml:space="preserve">
<g>
	<g>
		<path d="M10,12.9l2.4-2.7V8.5L5.1,8.8c-0.5,0-1.1,0-1.7,0.3c-0.8,0.4-1.2,1.2-1.2,1.2c-0.4,0.7-0.3,1.5-0.3,1.5
			c0.1,0.8,0.2,1.1,0.5,1.5c0.5,0.6,0.7,0.7,1.2,1c0,0,0.5,0.3,1.1,0.4l0.4,0c0.1,0,7.9,4,7.9,4v-1.5L10,12.9z M19.5,15.7l-2.1-9.6
			l-1.7-1.6l-2,0.7v2.9l-0.5,0.4v1.7h0.6c0,0,0,7.4,0,8.5c3.2,0,8.5,0,8.5,0C21.7,18.3,19.5,15.7,19.5,15.7z M6.7,11.7
			c0,1-0.8,1.9-1.9,1.9s-1.9-0.8-1.9-1.9s0.8-1.9,1.9-1.9S6.7,10.7,6.7,11.7z"/>
	</g>
</g>
</svg>
